<mxfile host="drawio-plugin" modified="2021-03-05T12:21:19.341Z" agent="5.0 (Macintosh; Intel Mac OS X 10_16_0) AppleWebKit/537.36 (KHTML, like Gecko) Chrome/81.0.4044.113 Safari/537.36" etag="uOSR5sMZVcEyLF-v7nbB" version="13.7.9" type="embed"><diagram id="PN8dM30dJja1p0zS_vNu" name="master"><mxGraphModel dx="1875" dy="927" grid="1" gridSize="10" guides="1" tooltips="1" connect="1" arrows="1" fold="1" page="1" pageScale="1" pageWidth="850" pageHeight="1100" math="0" shadow="0"><root><mxCell id="0"/><mxCell id="1" parent="0"/><mxCell id="6" value="NavigationSystem" style="swimlane;fontStyle=1;align=center;verticalAlign=top;childLayout=stackLayout;horizontal=1;startSize=26;horizontalStack=0;resizeParent=1;resizeParentMax=0;resizeLast=0;collapsible=1;marginBottom=0;" parent="1" vertex="1"><mxGeometry x="300" y="249" width="390" height="190" as="geometry"/></mxCell><mxCell id="7" value="- transportMethod : TransportMethod" style="text;strokeColor=none;fillColor=none;align=left;verticalAlign=top;spacingLeft=4;spacingRight=4;overflow=hidden;rotatable=0;points=[[0,0.5],[1,0.5]];portConstraint=eastwest;" parent="6" vertex="1"><mxGeometry y="26" width="390" height="26" as="geometry"/></mxCell><mxCell id="8" value="" style="line;strokeWidth=1;fillColor=none;align=left;verticalAlign=middle;spacingTop=-1;spacingLeft=3;spacingRight=3;rotatable=0;labelPosition=right;points=[];portConstraint=eastwest;" parent="6" vertex="1"><mxGeometry y="52" width="390" height="8" as="geometry"/></mxCell><mxCell id="9" value="+ findRoute(String startintPoint, String destinationPoint) : Route" style="text;strokeColor=none;fillColor=none;align=left;verticalAlign=top;spacingLeft=4;spacingRight=4;overflow=hidden;rotatable=0;points=[[0,0.5],[1,0.5]];portConstraint=eastwest;" parent="6" vertex="1"><mxGeometry y="60" width="390" height="26" as="geometry"/></mxCell><mxCell id="14" value="+ setTransportMethod(TransportMethod method) : void" style="text;strokeColor=none;fillColor=none;align=left;verticalAlign=top;spacingLeft=4;spacingRight=4;overflow=hidden;rotatable=0;points=[[0,0.5],[1,0.5]];portConstraint=eastwest;" parent="6" vertex="1"><mxGeometry y="86" width="390" height="26" as="geometry"/></mxCell><mxCell id="29" value="- findCarRoute(String startintPoint, String destinationPoint) : Route" style="text;strokeColor=none;fillColor=none;align=left;verticalAlign=top;spacingLeft=4;spacingRight=4;overflow=hidden;rotatable=0;points=[[0,0.5],[1,0.5]];portConstraint=eastwest;" vertex="1" parent="6"><mxGeometry y="112" width="390" height="26" as="geometry"/></mxCell><mxCell id="30" value="- findBusRoute(String startintPoint, String destinationPoint) : Route" style="text;strokeColor=none;fillColor=none;align=left;verticalAlign=top;spacingLeft=4;spacingRight=4;overflow=hidden;rotatable=0;points=[[0,0.5],[1,0.5]];portConstraint=eastwest;" vertex="1" parent="6"><mxGeometry y="138" width="390" height="26" as="geometry"/></mxCell><mxCell id="31" value="- findWalkingRoute(String startintPoint, String destinationPoint) : Route" style="text;strokeColor=none;fillColor=none;align=left;verticalAlign=top;spacingLeft=4;spacingRight=4;overflow=hidden;rotatable=0;points=[[0,0.5],[1,0.5]];portConstraint=eastwest;" vertex="1" parent="6"><mxGeometry y="164" width="390" height="26" as="geometry"/></mxCell><mxCell id="16" value="" style="endArrow=open;endSize=12;html=1;" parent="1" source="6" target="10" edge="1"><mxGeometry width="160" relative="1" as="geometry"><mxPoint x="370" y="530" as="sourcePoint"/><mxPoint x="530" y="530" as="targetPoint"/></mxGeometry></mxCell><mxCell id="25" value="" style="endArrow=open;endSize=12;html=1;edgeStyle=orthogonalEdgeStyle;rounded=0;" parent="1" source="6" target="21" edge="1"><mxGeometry width="160" relative="1" as="geometry"><mxPoint x="310" y="315" as="sourcePoint"/><mxPoint x="240" y="315" as="targetPoint"/><Array as="points"><mxPoint x="470" y="170"/></Array></mxGeometry></mxCell><mxCell id="21" value="Route" style="swimlane;fontStyle=1;align=center;verticalAlign=top;childLayout=stackLayout;horizontal=1;startSize=26;horizontalStack=0;resizeParent=1;resizeParentMax=0;resizeLast=0;collapsible=1;marginBottom=0;" parent="1" vertex="1"><mxGeometry x="80" y="100" width="160" height="86" as="geometry"/></mxCell><mxCell id="22" value="- waypoints : String[]" style="text;strokeColor=none;fillColor=none;align=left;verticalAlign=top;spacingLeft=4;spacingRight=4;overflow=hidden;rotatable=0;points=[[0,0.5],[1,0.5]];portConstraint=eastwest;" parent="21" vertex="1"><mxGeometry y="26" width="160" height="26" as="geometry"/></mxCell><mxCell id="23" value="" style="line;strokeWidth=1;fillColor=none;align=left;verticalAlign=middle;spacingTop=-1;spacingLeft=3;spacingRight=3;rotatable=0;labelPosition=right;points=[];portConstraint=eastwest;" parent="21" vertex="1"><mxGeometry y="52" width="160" height="8" as="geometry"/></mxCell><mxCell id="24" value="+ Route(String... waypoints)" style="text;strokeColor=none;fillColor=none;align=left;verticalAlign=top;spacingLeft=4;spacingRight=4;overflow=hidden;rotatable=0;points=[[0,0.5],[1,0.5]];portConstraint=eastwest;" parent="21" vertex="1"><mxGeometry y="60" width="160" height="26" as="geometry"/></mxCell><mxCell id="27" value="" style="endArrow=open;endSize=12;html=1;edgeStyle=orthogonalEdgeStyle;" parent="1" source="17" target="21" edge="1"><mxGeometry width="160" relative="1" as="geometry"><mxPoint x="480" y="259" as="sourcePoint"/><mxPoint x="250" y="180" as="targetPoint"/><Array as="points"><mxPoint x="360" y="110"/><mxPoint x="360" y="110"/></Array></mxGeometry></mxCell><mxCell id="17" value="Main" style="swimlane;fontStyle=1;align=center;verticalAlign=top;childLayout=stackLayout;horizontal=1;startSize=26;horizontalStack=0;resizeParent=1;resizeParentMax=0;resizeLast=0;collapsible=1;marginBottom=0;" parent="1" vertex="1"><mxGeometry x="460" y="80" width="160" height="60" as="geometry"/></mxCell><mxCell id="19" value="" style="line;strokeWidth=1;fillColor=none;align=left;verticalAlign=middle;spacingTop=-1;spacingLeft=3;spacingRight=3;rotatable=0;labelPosition=right;points=[];portConstraint=eastwest;" parent="17" vertex="1"><mxGeometry y="26" width="160" height="8" as="geometry"/></mxCell><mxCell id="18" value="+ main(args : String[])" style="text;strokeColor=none;fillColor=none;align=left;verticalAlign=top;spacingLeft=4;spacingRight=4;overflow=hidden;rotatable=0;points=[[0,0.5],[1,0.5]];portConstraint=eastwest;" parent="17" vertex="1"><mxGeometry y="34" width="160" height="26" as="geometry"/></mxCell><mxCell id="28" value="" style="endArrow=open;endSize=12;html=1;edgeStyle=orthogonalEdgeStyle;" parent="1" source="17" target="6" edge="1"><mxGeometry width="160" relative="1" as="geometry"><mxPoint x="470" y="120" as="sourcePoint"/><mxPoint x="250" y="120" as="targetPoint"/><Array as="points"><mxPoint x="540" y="230"/><mxPoint x="540" y="230"/></Array></mxGeometry></mxCell><mxCell id="10" value="&lt;&lt;enum&gt;&gt;&#10;TransportMethod" style="swimlane;fontStyle=1;childLayout=stackLayout;horizontal=1;startSize=30;fillColor=none;horizontalStack=0;resizeParent=1;resizeParentMax=0;resizeLast=0;collapsible=1;marginBottom=0;" parent="1" vertex="1"><mxGeometry x="80" y="290" width="140" height="108" as="geometry"/></mxCell><mxCell id="11" value="Walking" style="text;strokeColor=none;fillColor=none;align=left;verticalAlign=top;spacingLeft=4;spacingRight=4;overflow=hidden;rotatable=0;points=[[0,0.5],[1,0.5]];portConstraint=eastwest;" parent="10" vertex="1"><mxGeometry y="30" width="140" height="26" as="geometry"/></mxCell><mxCell id="12" value="Car" style="text;strokeColor=none;fillColor=none;align=left;verticalAlign=top;spacingLeft=4;spacingRight=4;overflow=hidden;rotatable=0;points=[[0,0.5],[1,0.5]];portConstraint=eastwest;" parent="10" vertex="1"><mxGeometry y="56" width="140" height="26" as="geometry"/></mxCell><mxCell id="13" value="Bus" style="text;strokeColor=none;fillColor=none;align=left;verticalAlign=top;spacingLeft=4;spacingRight=4;overflow=hidden;rotatable=0;points=[[0,0.5],[1,0.5]];portConstraint=eastwest;" parent="10" vertex="1"><mxGeometry y="82" width="140" height="26" as="geometry"/></mxCell></root></mxGraphModel></diagram></mxfile>